<svg width="18" height="18" viewBox="0 0 18 18" version="1.1" xmlns="http://www.w3.org/2000/svg" xmlns:xlink="http://www.w3.org/1999/xlink"><title>Language</title><desc>Created with Sketch.</desc><g id="Navigation" stroke="none" stroke-width="1" fill="none" fill-rule="evenodd" transform="translate(-1114.000000, -32.000000)"><g fill="#151616" id="Language"><path d="M1122.201,33.281 L1122.201,36.207 C1121.5,36.169 1120.811,36.037 1120.151,35.814 C1120.689,34.828 1121.378,33.978 1122.201,33.281 Z M1119.36,35.494 C1118.805,35.235 1118.282,34.911 1117.801,34.529 C1118.821,33.719 1120.016,33.184 1121.291,32.964 C1120.517,33.69 1119.87,34.539 1119.36,35.494 Z M1122.201,37.055 L1122.201,40.202 L1118.96,40.202 C1119.01,38.934 1119.284,37.718 1119.776,36.582 C1120.55,36.855 1121.364,37.013 1122.201,37.055 Z M1122.201,45.251 L1122.201,47.969 C1121.43,47.316 1120.775,46.525 1120.251,45.613 C1120.88,45.41 1121.535,45.288 1122.201,45.251 Z M1118.96,41.048 L1122.201,41.048 L1122.201,44.404 C1121.395,44.444 1120.607,44.594 1119.857,44.849 C1119.314,43.669 1119.013,42.392 1118.96,41.048 Z M1119.453,45.921 C1119.951,46.813 1120.567,47.606 1121.291,48.285 C1120.077,48.074 1118.93,47.573 1117.938,46.822 C1118.41,46.464 1118.918,46.162 1119.453,45.921 Z M1114.868,40.202 C1114.972,38.267 1115.782,36.467 1117.163,35.101 C1117.724,35.563 1118.34,35.951 1118.995,36.258 C1118.46,37.49 1118.163,38.816 1118.112,40.202 L1114.868,40.202 Z M1119.072,45.165 C1118.433,45.456 1117.832,45.823 1117.281,46.26 C1115.827,44.88 1114.974,43.039 1114.867,41.048 L1118.112,41.048 C1118.166,42.501 1118.489,43.885 1119.072,45.165 Z M1130.382,40.202 L1127.137,40.202 C1127.086,38.817 1126.789,37.491 1126.255,36.258 C1126.908,35.952 1127.523,35.564 1128.086,35.101 C1129.468,36.466 1130.278,38.267 1130.382,40.202 Z M1123.049,47.968 L1123.049,45.251 C1123.715,45.288 1124.37,45.41 1124.998,45.613 C1124.473,46.525 1123.819,47.315 1123.049,47.968 Z M1125.796,45.921 C1126.331,46.162 1126.839,46.464 1127.31,46.822 C1126.319,47.573 1125.173,48.074 1123.959,48.285 C1124.681,47.606 1125.298,46.814 1125.796,45.921 Z M1123.049,44.404 L1123.049,41.048 L1126.29,41.048 C1126.236,42.392 1125.934,43.67 1125.391,44.849 C1124.641,44.594 1123.854,44.444 1123.049,44.404 Z M1126.177,45.165 C1126.761,43.883 1127.084,42.499 1127.137,41.048 L1130.383,41.048 C1130.275,43.039 1129.423,44.88 1127.968,46.26 C1127.419,45.823 1126.817,45.456 1126.177,45.165 Z M1123.049,36.207 L1123.049,33.281 C1123.872,33.978 1124.56,34.828 1125.098,35.814 C1124.438,36.036 1123.75,36.168 1123.049,36.207 Z M1126.29,40.202 L1123.049,40.202 L1123.049,37.055 C1123.887,37.013 1124.7,36.855 1125.472,36.582 C1125.965,37.714 1126.239,38.931 1126.29,40.202 Z M1125.889,35.494 C1125.379,34.538 1124.731,33.689 1123.959,32.964 C1125.233,33.184 1126.429,33.719 1127.448,34.529 C1126.968,34.911 1126.444,35.235 1125.889,35.494 Z M1122.625,32 C1117.869,32 1114,35.869 1114,40.625 C1114,45.381 1117.869,49.25 1122.625,49.25 C1127.381,49.25 1131.25,45.381 1131.25,40.625 C1131.25,35.869 1127.381,32 1122.625,32 Z"/></g></g></svg>