<svg width="18" height="18" viewBox="0 0 18 18" version="1.1" xmlns="http://www.w3.org/2000/svg" xmlns:xlink="http://www.w3.org/1999/xlink"><title>Seek</title><desc>Created with Sketch.</desc><g id="Navigation" stroke="none" stroke-width="1" fill="none" fill-rule="evenodd" transform="translate(-1199.000000, -32.000000)"><g fill="#1D1D1B" id="Seek"><path d="M1216.1138,48.3755 L1211.0668,43.3295 C1212.1418,42.0805 1212.7308,40.5055 1212.7308,38.8645 C1212.7308,35.0795 1209.6498,32.0005 1205.8648,32.0005 C1202.0798,32.0005 1198.9998,35.0795 1198.9998,38.8645 C1198.9998,42.6505 1202.0798,45.7305 1205.8648,45.7305 C1207.5038,45.7305 1209.0798,45.1415 1210.3298,44.0675 L1215.3758,49.1145 C1215.4228,49.1615 1215.4868,49.1875 1215.5538,49.1875 C1215.6198,49.1875 1215.6838,49.1615 1215.7308,49.1145 L1216.1138,48.7315 C1216.1608,48.6845 1216.1878,48.6205 1216.1878,48.5535 C1216.1878,48.4865 1216.1608,48.4225 1216.1138,48.3755 M1211.6868,38.8645 C1211.6868,42.0755 1209.0748,44.6865 1205.8648,44.6865 C1202.6558,44.6865 1200.0438,42.0755 1200.0438,38.8645 C1200.0438,35.6555 1202.6558,33.0445 1205.8648,33.0445 C1209.0748,33.0445 1211.6868,35.6555 1211.6868,38.8645"/></g></g></svg>