<svg width="106" height="15" viewBox="0 0 106 15" version="1.1" xmlns="http://www.w3.org/2000/svg" xmlns:xlink="http://www.w3.org/1999/xlink"><title>Ennova logo</title><desc>Created with Sketch.</desc><g id="Navigation" stroke="none" stroke-width="1" fill="none" fill-rule="evenodd" transform="translate(-223.000000, -35.000000)"><g fill="#000" id="Ennova-logo"><path d="M278.733681,41.8967976 C278.733681,37.4164681 281.51892,35 287.174447,35 C292.96811,35 295.666354,37.1916215 295.666354,41.8967976 C295.666354,47.032531 292.555369,50 287.226978,50 C281.670953,50 278.733681,47.1980001 278.733681,41.8967976 Z M286.9999,36.7104103 C284.189647,36.7416468 282.561195,38.477384 282.673483,41.8402341 C282.816067,46.119074 284.428398,48.2012269 287.38318,48.2012269 C290.258193,48.2012269 291.854682,45.6657224 291.720715,41.7245746 C291.605369,38.2682963 290.104214,36.6757969 286.9999,36.7104103 Z M232.660923,41.4127723 C234.334679,41.4127723 234.913629,41.0325873 234.913629,39.9348067 C234.913629,38.0397914 233.492243,36.6828321 231.017185,36.6828321 C228.574647,36.6828321 226.975101,38.6161192 227.144088,41.4127723 L232.660923,41.4127723 Z M238.627744,43.112489 L227.235531,43.112489 C227.542099,46.0554753 229.045199,47.9212239 232.403829,47.9212239 C234.529515,47.9212239 235.728827,47.4895409 237.238876,46.9061779 L237.238876,49.3299627 C235.178784,49.7174643 233.231257,49.9091046 231.289289,49.9091046 C225.715754,49.9091046 223,46.9576759 223,41.7521528 C223,38.0108061 225.775233,35.0264525 231.123358,35.0264525 C236.990676,35.0264525 238.833141,38.7641409 238.670824,42.4137478 L238.627744,43.112489 Z M321.592338,48.1497289 C324.298364,48.1497289 325.154697,47.7532221 325.154697,45.7068082 L325.154697,42.5007035 L321.308561,42.5007035 C318.501087,42.5007035 317.725912,43.5348855 317.725912,45.1133144 C317.725912,47.0851547 319.124785,48.1497289 321.592338,48.1497289 Z M329,49.6510515 C327.091663,49.6510515 324.293639,49.8978482 320.657625,49.8978482 C317.021889,49.8978482 314.06266,48.6661164 314.06266,44.9008499 C314.06266,42.2826107 315.643306,40.7947958 320.395805,40.7947958 L325.154697,40.7947958 C325.154697,39.2428194 324.740288,38.2348085 323.923978,37.6103596 C322.655737,36.6417462 320.494474,36.6046001 317.323454,37.4899161 L317.323454,35.4133914 C318.541388,35.2608671 320.585082,35.1058102 322.1749,35.1058102 C324.65774,35.1058102 326.503263,35.8518282 327.661996,37.3238842 C328.650629,38.5784102 329,40.3631128 329,42.6270566 L329,49.6510515 Z M304.008729,45.8365383 C304.427863,47.4974204 304.793076,47.7768606 305.491262,47.7768606 C306.524088,47.7768606 308.0472,46.489691 309.339622,35.4353414 L313.723573,35.4353414 C310.920268,46.7145376 309.327948,49.6510515 306.043807,49.6510515 C306.042695,49.6510515 302.298841,49.6476746 301.533671,49.6510515 L296.750043,35.4353414 L301.161509,35.4353414 L304.008729,45.8365383 Z M276.203035,49.6510515 L272.051443,49.6510515 C272.242665,47.1740803 272.385527,45.0820779 272.385527,43.3640696 C272.385527,41.0438437 272.064506,39.394218 271.1423,38.3645386 C270.37852,37.5104591 269.243691,37.1111382 267.569657,37.1111382 C264.562622,37.1111382 264.33749,38.4081571 264.33749,40.3830929 L264.33749,49.6510515 L260.350994,49.6510515 L260.350994,39.3655141 C260.350994,37.3829803 260.919104,35.1058102 265.343912,35.1058102 C272.85469,35.1058102 276.203035,37.5070822 276.203035,42.8904564 L276.203035,49.6510515 Z M240.954381,42.8904564 C240.954381,37.5070822 244.302449,35.1058102 251.813227,35.1058102 C256.237757,35.1058102 256.804477,37.3829803 256.804477,39.3655141 L256.804477,49.6510515 L252.81937,49.6510515 L252.81937,40.3830929 C252.81937,38.4081571 252.594795,37.1111382 249.586648,37.1111382 C247.91456,37.1111382 246.778618,37.5104591 246.01456,38.3645386 C245.094856,39.394218 244.77189,41.0438437 244.77189,43.3640696 C244.77189,45.0820779 244.913361,47.1740803 245.107086,49.6510515 L240.954381,49.6510515 L240.954381,42.8904564 Z"/></g></g></svg>