<svg width="51" height="22" viewBox="0 0 51 22" version="1.1" xmlns="http://www.w3.org/2000/svg" xmlns:xlink="http://www.w3.org/1999/xlink"><title>AAA</title><desc>Created with Sketch.</desc><defs><polygon id="path-1" points="4.041 0.0108 4.041 3.2298 0.7542 3.2298 0.7542 0.0108 4.041 0.0108"/></defs><g id="Video_billede_top_frame_dark" stroke="none" stroke-width="1" fill="none" fill-rule="evenodd" transform="translate(-1061.000000, -513.000000)"><g id="Video-frame"><g id="Logoer" transform="translate(991.000000, 510.000000)"><g id="AAA" transform="translate(70.000000, 3.000000)"><path d="M21.375,0.0002 L16.848,14.1382 L13.207,2.7602 L11.559,2.7602 L7.23,2.7602 L5.581,2.7602 L0,20.1972 L5.979,20.1972 L6.707,17.9202 L12.081,17.9202 L12.811,20.1972 L14.91,20.1972 L14.611,21.1332 L21.857,21.1332 L22.74,18.3742 L29.253,18.3742 L30.137,21.1332 L37.383,21.1332 L37.084,20.1972 L38.542,20.1972 L39.193,18.1642 L43.989,18.1642 L44.638,20.1972 L49.974,20.1972 L44.994,4.6332 L43.523,4.6332 L39.659,4.6332 L38.187,4.6332 L35.144,14.1382 L30.618,0.0002 L21.375,0.0002 Z M25.997,8.1992 L27.735,13.6292 L24.258,13.6292 L25.997,8.1992 Z M9.394,9.5262 L10.828,14.0062 L7.96,14.0062 L9.394,9.5262 Z M41.59,10.6712 L42.871,14.6712 L40.31,14.6712 L41.59,10.6712 Z" id="Fill-1" fill="#FFF"/><g id="Group-7" transform="translate(46.000000, 2.133100)"><g id="Group-4"><mask id="mask-2" fill="#fff"><use xlink:href="#path-1"/></mask><path d="M2.4022,0.3318 C3.1142,0.3318 3.6322,0.9078 3.6322,1.6198 C3.6322,2.3228 3.1142,2.8878 2.4122,2.8878 C1.6902,2.8878 1.1642,2.3228 1.1642,1.6098 C1.1642,0.9078 1.6902,0.3318 2.4022,0.3318 M2.4022,3.2298 C3.3302,3.2298 4.0422,2.5178 4.0422,1.6098 C4.0422,0.7218 3.3302,0.0108 2.4022,0.0108 C1.4852,0.0108 0.7542,0.7218 0.7542,1.6098 C0.7542,2.5178 1.4852,3.2298 2.4022,3.2298" id="Fill-2" fill="#FFF" mask="url(#mask-2)"/></g><path d="M2.158,1.0828 C2.197,1.0728 2.265,1.0638 2.363,1.0638 C2.597,1.0638 2.705,1.1608 2.705,1.3078 C2.705,1.4738 2.54,1.5418 2.335,1.5418 L2.158,1.5418 L2.158,1.0828 Z M2.148,1.8048 L2.324,1.8048 C2.529,1.8048 2.627,1.8838 2.656,2.0588 C2.705,2.2438 2.734,2.3908 2.783,2.4488 L3.183,2.4488 C3.144,2.3908 3.114,2.2928 3.066,2.0488 C3.017,1.8348 2.929,1.7178 2.773,1.6588 L2.773,1.6388 C2.969,1.5808 3.105,1.4438 3.105,1.2688 C3.105,1.1128 3.037,0.9858 2.948,0.9168 C2.832,0.8488 2.695,0.7998 2.392,0.7998 C2.13,0.7998 1.925,0.8198 1.777,0.8488 L1.777,2.4488 L2.148,2.4488 L2.148,1.8048 Z" id="Fill-5" fill="#FFF"/></g></g></g></g></g></svg>